,
.   http://www.scenetime.com/signup.php  ---&gt;  Hottest scene tracker on the net !!!  

    Join Now   http://www.scenetime.com/signup.php

    seed back for speed


 



...................................NFO:.................................................BAIL ENFORCERS 2011 XviD - DIDyourMUM

Format                           : AVI
Format/Info                      : Audio Video Interleave
File size                        : 739 MiB
Duration                         : 1h 21mn
Overall bit rate                 : 1 276 Kbps


Video
ID                               : 0
Format                           : MPEG-4 Visual
Format profile                   : Advanced Simple@L5
Format settings, BVOP            : 2
Format settings, QPel            : No
Format settings, GMC             : No warppoints
Format settings, Matrix          : Default (H.263)
Muxing mode                      : Packed bitstream
Codec ID                         : XVID
Codec ID/Hint                    : XviD
Duration                         : 1h 21mn
Bit rate                         : 1 075 Kbps
Width                            : 720 pixels
Height                           : 400 pixels
Display aspect ratio             : 16:9
Frame rate                       : 23.976 fps
Color space                      : YUV
Chroma subsampling               : 4:2:0
Bit depth                        : 8 bits
Scan type                        : Progressive
Compression mode                 : Lossy
Bits/(Pixel*Frame)               : 0.156
Stream size                      : 623 MiB (84%)
Writing library                  : XviD 64

Audio
ID                               : 1
Format                           : AC-3
Format/Info                      : Audio Coding 3
Mode extension                   : CM (complete main)
Codec ID                         : 2000
Duration                         : 1h 21mn
Bit rate mode                    : Constant
Bit rate                         : 192 Kbps
Channel(s)                       : 2 channels
Channel positions                : Front: L R
Sampling rate                    : 48.0 KHz
Bit depth                        : 16 bits
Compression mode                 : Lossy
Stream size                      : 111 MiB (15%)
Alignment                        : Aligned on interleaves
Interleave, duration             : 42 ms (1.00 video frame)
Interleave, preload duration     : 512 ms





SOURCES THANKED:
AUDIO: BAIL ENFORCERS 2011 DVDR DIDyourGRAN thanks
VIDEO: BAIL ENFORCERS 2011 DVDR DIDyourGRAN thanks
 
http://www.imdb.com/title/tt1596565/
[IMG]http://i.imgur.com/zpfej.png[/IMG] :lol:

WORKDONE:

DIDyourMUM enjoy i did.... later all.... time for 2nds :lol:

pics stuff that theres sample thats what it there for no photo shop pics here